<svg width="110" height="35" viewBox="0 0 110 35" fill="none" xmlns="http://www.w3.org/2000/svg">
<path d="M6.93213 24.54C5.92413 24.54 4.97613 24.396 4.08813 24.108C3.20013 23.844 2.38413 23.436 1.64013 22.884C1.54413 22.788 1.43613 22.68 1.31613 22.56C1.22013 22.416 1.14813 22.272 1.10013 22.128C0.932127 21.576 0.812127 20.892 0.740127 20.076C0.692127 19.236 0.656127 18.492 0.632127 17.844C0.632127 17.676 0.704127 17.556 0.848127 17.484C0.992127 17.388 1.16013 17.34 1.35213 17.34C1.52013 17.34 1.65213 17.376 1.74813 17.448C1.86813 17.496 1.95213 17.604 2.00013 17.772C2.50413 19.596 3.24813 20.964 4.23213 21.876C5.21613 22.764 6.28413 23.208 7.43613 23.208C8.25213 23.208 8.94813 23.028 9.52413 22.668C10.1241 22.308 10.5921 21.828 10.9281 21.228C11.2641 20.604 11.4321 19.908 11.4321 19.14C11.4321 18.228 11.2761 17.484 10.9641 16.908C10.6521 16.332 10.1961 15.816 9.59613 15.36C8.99613 14.904 8.25213 14.412 7.36413 13.884C6.40413 13.308 5.45613 12.708 4.52013 12.084C3.60813 11.46 2.85213 10.728 2.25213 9.888C1.65213 9.048 1.35213 8.016 1.35213 6.792C1.35213 5.496 1.65213 4.356 2.25213 3.372C2.87613 2.364 3.77613 1.572 4.95213 0.995998C6.12813 0.395998 7.54413 0.0959988 9.20013 0.0959988C10.0641 0.0959988 10.8441 0.191999 11.5401 0.383999C12.2601 0.551999 12.8361 0.731998 13.2681 0.923999C13.4841 0.995999 13.6521 1.116 13.7721 1.284C13.9161 1.452 14.0241 1.656 14.0961 1.896C14.2161 2.4 14.3481 2.988 14.4921 3.66C14.6361 4.332 14.7081 5.016 14.7081 5.712C14.7081 5.976 14.5161 6.108 14.1321 6.108C13.9161 6.108 13.7121 6.06 13.5201 5.964C13.3281 5.868 13.2081 5.748 13.1601 5.604C12.6801 4.26 12.0801 3.24 11.3601 2.544C10.6641 1.848 9.77613 1.5 8.69613 1.5C7.97613 1.5 7.31613 1.632 6.71613 1.896C6.14013 2.136 5.67213 2.544 5.31213 3.12C4.97613 3.672 4.80813 4.404 4.80813 5.316C4.80813 5.964 5.02413 6.576 5.45613 7.152C5.91213 7.704 6.51213 8.244 7.25613 8.772C8.02413 9.276 8.87613 9.804 9.81213 10.356C10.7961 10.956 11.6841 11.58 12.4761 12.228C13.2681 12.876 13.8921 13.62 14.3481 14.46C14.8041 15.276 15.0321 16.26 15.0321 17.412C15.0321 18.924 14.6961 20.22 14.0241 21.3C13.3521 22.356 12.4041 23.16 11.1801 23.712C9.98013 24.264 8.56413 24.54 6.93213 24.54ZM18.7261 34.224C18.1981 34.224 17.7061 34.068 17.2501 33.756C16.7941 33.468 16.5661 33.048 16.5661 32.496C16.5661 32.04 16.6741 31.632 16.8901 31.272C17.1061 30.912 17.4301 30.732 17.8621 30.732C18.1741 30.732 18.4741 30.768 18.7621 30.84C19.0741 30.936 19.3501 30.984 19.5901 30.984C19.8301 30.96 20.0101 30.9 20.1301 30.804C20.2501 30.732 20.3701 30.588 20.4901 30.372C20.7301 29.988 20.9821 29.532 21.2461 29.004C21.5341 28.5 21.8341 27.912 22.1461 27.24C22.4581 26.568 22.7821 25.812 23.1181 24.972C23.2621 24.612 23.3341 24.228 23.3341 23.82C23.3341 23.58 23.3101 23.352 23.2621 23.136C23.2141 22.92 23.1421 22.704 23.0461 22.488L18.7981 12.12C18.6061 11.664 18.3781 11.268 18.1141 10.932C17.8501 10.596 17.5141 10.368 17.1061 10.248C16.9141 10.152 16.7341 10.056 16.5661 9.96C16.4221 9.864 16.3501 9.72 16.3501 9.528C16.3501 9.384 16.4461 9.3 16.6381 9.276C16.8301 9.228 16.9861 9.204 17.1061 9.204C17.6341 9.204 18.0421 9.216 18.3301 9.24C18.6181 9.264 18.8821 9.288 19.1221 9.312C19.3621 9.336 19.6741 9.348 20.0581 9.348C20.5141 9.348 20.8741 9.336 21.1381 9.312C21.4021 9.288 21.6781 9.264 21.9661 9.24C22.2781 9.216 22.6861 9.204 23.1901 9.204C23.3581 9.204 23.5261 9.24 23.6941 9.312C23.8621 9.36 23.9461 9.456 23.9461 9.6C23.9461 9.792 23.8381 9.96 23.6221 10.104C23.4061 10.224 23.2021 10.32 23.0101 10.392C22.7461 10.464 22.5421 10.596 22.3981 10.788C22.2781 10.956 22.2181 11.232 22.2181 11.616C22.2181 11.784 22.2541 11.976 22.3261 12.192C22.3981 12.408 22.4821 12.624 22.5781 12.84L25.2421 19.428C25.2901 19.548 25.3501 19.608 25.4221 19.608C25.4701 19.608 25.5181 19.548 25.5661 19.428L27.8341 13.2C27.9061 13.032 27.9661 12.816 28.0141 12.552C28.0621 12.264 28.0861 12.024 28.0861 11.832C28.0861 11.4 28.0021 11.088 27.8341 10.896C27.6661 10.68 27.4741 10.524 27.2581 10.428C27.0661 10.332 26.8501 10.224 26.6101 10.104C26.3941 9.96 26.2861 9.792 26.2861 9.6C26.2861 9.456 26.3701 9.36 26.5381 9.312C26.7301 9.24 26.8981 9.204 27.0421 9.204C27.4741 9.204 27.8701 9.228 28.2301 9.276C28.5901 9.324 29.0461 9.348 29.5981 9.348C29.9821 9.348 30.2821 9.336 30.4981 9.312C30.7141 9.288 30.9181 9.264 31.1101 9.24C31.3021 9.216 31.5541 9.204 31.8661 9.204C31.9861 9.204 32.1421 9.228 32.3341 9.276C32.5261 9.3 32.6221 9.384 32.6221 9.528C32.6221 9.72 32.5381 9.864 32.3701 9.96C32.2261 10.056 32.0581 10.152 31.8661 10.248C31.4821 10.368 31.0861 10.644 30.6781 11.076C30.2941 11.508 29.9821 12.012 29.7421 12.588L24.6661 24.684C24.5941 24.9 24.4381 25.284 24.1981 25.836C23.9821 26.388 23.7181 27.036 23.4061 27.78C23.0941 28.524 22.7581 29.304 22.3981 30.12C22.0621 30.96 21.7261 31.764 21.3901 32.532C21.1501 33.084 20.7901 33.504 20.3101 33.792C19.8541 34.08 19.3261 34.224 18.7261 34.224ZM33.6346 24.108C33.4426 24.108 33.2746 24.072 33.1306 24C32.9866 23.928 32.9146 23.82 32.9146 23.676C32.9146 23.484 32.9866 23.352 33.1306 23.28C33.2986 23.184 33.5026 23.1 33.7426 23.028C34.1026 22.932 34.4386 22.8 34.7506 22.632C35.0626 22.464 35.2186 22.14 35.2186 21.66V13.74C35.2186 13.14 35.1466 12.636 35.0026 12.228C34.8826 11.796 34.5346 11.508 33.9586 11.364C33.8626 11.34 33.7786 11.292 33.7066 11.22C33.6346 11.124 33.5986 11.004 33.5986 10.86C33.5986 10.548 33.7066 10.38 33.9226 10.356C34.7626 10.14 35.5186 9.876 36.1906 9.564C36.8866 9.252 37.5226 8.904 38.0986 8.52C38.1706 8.472 38.2426 8.424 38.3146 8.376C38.4106 8.328 38.4946 8.304 38.5666 8.304C38.6626 8.304 38.7226 8.34 38.7466 8.412C38.7946 8.46 38.8186 8.532 38.8186 8.628C38.8186 8.796 38.7826 9.12 38.7106 9.6C38.6626 10.08 38.6386 10.488 38.6386 10.824C38.6386 10.92 38.6386 11.016 38.6386 11.112C38.6626 11.208 38.6866 11.268 38.7106 11.292C39.5506 10.5 40.4146 9.9 41.3026 9.492C42.2146 9.084 43.2346 8.88 44.3626 8.88C45.5626 8.88 46.5586 9.348 47.3506 10.284C48.1426 11.22 48.5386 12.432 48.5386 13.92V21.696C48.5386 22.176 48.6946 22.488 49.0066 22.632C49.3426 22.776 49.6906 22.908 50.0506 23.028C50.2426 23.1 50.4226 23.184 50.5906 23.28C50.7586 23.376 50.8426 23.52 50.8426 23.712C50.8426 23.88 50.7586 23.988 50.5906 24.036C50.4466 24.084 50.3026 24.108 50.1586 24.108C49.6786 24.108 49.2706 24.084 48.9346 24.036C48.6226 24.012 48.3106 23.988 47.9986 23.964C47.7106 23.94 47.3506 23.928 46.9186 23.928C46.5106 23.928 46.1506 23.94 45.8386 23.964C45.5266 23.988 45.2026 24.012 44.8666 24.036C44.5546 24.084 44.1586 24.108 43.6786 24.108C43.5586 24.108 43.4146 24.084 43.2466 24.036C43.0786 23.988 42.9946 23.88 42.9946 23.712C42.9946 23.52 43.0786 23.376 43.2466 23.28C43.4146 23.184 43.5946 23.1 43.7866 23.028C44.1466 22.908 44.4826 22.776 44.7946 22.632C45.1066 22.488 45.2626 22.176 45.2626 21.696V14.244C45.2626 13.236 44.9866 12.456 44.4346 11.904C43.9066 11.352 43.2106 11.064 42.3466 11.04C41.6026 11.04 40.9426 11.16 40.3666 11.4C39.8146 11.616 39.2986 11.916 38.8186 12.3C38.7226 12.396 38.6506 12.516 38.6026 12.66C38.5546 12.804 38.5306 12.936 38.5306 13.056V21.696C38.5306 22.176 38.6866 22.5 38.9986 22.668C39.3106 22.812 39.6346 22.932 39.9706 23.028C40.4986 23.196 40.7626 23.412 40.7626 23.676C40.7626 23.82 40.7026 23.928 40.5826 24C40.4626 24.072 40.2946 24.108 40.0786 24.108C39.5986 24.108 39.1906 24.084 38.8546 24.036C38.5426 24.012 38.2426 23.988 37.9546 23.964C37.6906 23.94 37.3426 23.928 36.9106 23.928C36.5026 23.928 36.1426 23.94 35.8306 23.964C35.5186 23.988 35.1946 24.012 34.8586 24.036C34.5226 24.084 34.1146 24.108 33.6346 24.108ZM55.5591 24.504C55.0551 24.504 54.5631 24.336 54.0831 24C53.6031 23.688 53.2071 23.292 52.8951 22.812C52.5831 22.308 52.4271 21.816 52.4271 21.336C52.4271 20.544 52.6431 19.908 53.0751 19.428C53.5311 18.948 54.2271 18.516 55.1631 18.132L58.6551 16.656C59.1351 16.464 59.4231 16.296 59.5191 16.152C59.6151 15.984 59.6751 15.66 59.6991 15.18L59.7711 12.984C59.7951 12.336 59.6391 11.796 59.3031 11.364C58.9671 10.932 58.4751 10.716 57.8271 10.716C57.4911 10.716 57.1431 10.788 56.7831 10.932C56.4471 11.052 56.1711 11.196 55.9551 11.364C55.8351 11.46 55.7511 11.592 55.7031 11.76C55.6791 11.928 55.6671 12.108 55.6671 12.3C55.6671 12.42 55.6671 12.564 55.6671 12.732C55.6911 12.876 55.7031 12.996 55.7031 13.092C55.7031 13.236 55.5351 13.416 55.1991 13.632C54.8871 13.824 54.5151 14.004 54.0831 14.172C53.6751 14.34 53.3271 14.424 53.0391 14.424C52.8951 14.424 52.7751 14.388 52.6791 14.316C52.6071 14.22 52.5711 14.1 52.5711 13.956C52.5711 13.572 52.6911 13.176 52.9311 12.768C53.1951 12.336 53.5791 11.904 54.0831 11.472C54.6591 10.968 55.2831 10.524 55.9551 10.14C56.6511 9.732 57.3231 9.42 57.9711 9.204C58.6431 8.988 59.2311 8.88 59.7351 8.88C60.7431 8.88 61.5591 9.228 62.1831 9.924C62.8311 10.596 63.1311 11.472 63.0831 12.552L62.9031 20.688C62.8791 21.216 62.9871 21.648 63.2271 21.984C63.4671 22.32 63.7671 22.488 64.1271 22.488C64.6791 22.488 65.1111 22.344 65.4231 22.056C65.5191 21.96 65.6031 21.912 65.6751 21.912C65.7951 21.912 65.8911 21.948 65.9631 22.02C66.0591 22.092 66.1071 22.188 66.1071 22.308C66.1071 22.596 65.9391 22.896 65.6031 23.208C65.1951 23.616 64.7511 23.928 64.2711 24.144C63.8151 24.384 63.3711 24.504 62.9391 24.504C61.7391 24.504 60.7791 23.856 60.0591 22.56H59.9511C59.1591 23.232 58.4151 23.724 57.7191 24.036C57.0231 24.348 56.3031 24.504 55.5591 24.504ZM57.4311 22.56C57.8391 22.56 58.1751 22.5 58.4391 22.38C58.7271 22.236 58.9791 22.044 59.1951 21.804C59.3151 21.684 59.3991 21.54 59.4471 21.372C59.5191 21.18 59.5671 20.892 59.5911 20.508L59.6631 18.456C59.6871 18.216 59.6751 18.048 59.6271 17.952C59.5791 17.832 59.4831 17.772 59.3391 17.772C59.2911 17.772 59.2191 17.784 59.1231 17.808C59.0271 17.832 58.8951 17.88 58.7271 17.952C57.6471 18.36 56.8911 18.792 56.4591 19.248C56.0271 19.68 55.8111 20.16 55.8111 20.688C55.8111 21.336 55.9791 21.816 56.3151 22.128C56.6751 22.416 57.0471 22.56 57.4311 22.56ZM67.1182 33.972C66.9742 33.972 66.8062 33.936 66.6142 33.864C66.4462 33.816 66.3622 33.72 66.3622 33.576C66.3622 33.384 66.4462 33.24 66.6142 33.144C66.7822 33.048 66.9742 32.964 67.1902 32.892C67.5982 32.772 67.9462 32.628 68.2342 32.46C68.5222 32.292 68.6662 31.98 68.6662 31.524V13.632C68.6662 13.416 68.6062 13.128 68.4862 12.768C68.3902 12.408 68.2222 12.072 67.9822 11.76C67.7422 11.448 67.4422 11.268 67.0822 11.22C66.9622 11.172 66.8662 11.112 66.7942 11.04C66.7462 10.944 66.7222 10.824 66.7222 10.68C66.7222 10.536 66.7462 10.428 66.7942 10.356C66.8662 10.26 66.9502 10.2 67.0462 10.176C67.9102 9.96 68.7262 9.72 69.4942 9.456C70.2622 9.192 70.9462 8.916 71.5462 8.628C71.6182 8.628 71.6662 8.616 71.6902 8.592C71.7382 8.544 71.7862 8.52 71.8342 8.52C71.9062 8.52 71.9662 8.568 72.0142 8.664C72.0622 8.736 72.0862 8.808 72.0862 8.88C72.0862 9.096 72.0502 9.432 71.9782 9.888C71.9302 10.344 71.9062 10.728 71.9062 11.04C71.9062 11.232 71.9182 11.34 71.9422 11.364C72.1822 11.124 72.6142 10.824 73.2382 10.464C73.8622 10.08 74.5822 9.732 75.3982 9.42C76.2142 9.108 76.9942 8.952 77.7382 8.952C78.9862 8.952 80.0542 9.288 80.9422 9.96C81.8302 10.632 82.5142 11.496 82.9942 12.552C83.4742 13.608 83.7142 14.7 83.7142 15.828C83.7142 16.932 83.4982 18 83.0662 19.032C82.6582 20.064 82.0702 21 81.3022 21.84C80.5582 22.656 79.6942 23.316 78.7102 23.82C77.7262 24.3 76.6582 24.54 75.5062 24.54C75.1942 24.54 74.8222 24.492 74.3902 24.396C73.9582 24.324 73.5262 24.204 73.0942 24.036C72.6862 23.892 72.3622 23.724 72.1222 23.532C72.0982 23.532 72.0742 23.64 72.0502 23.856C72.0262 24.048 72.0022 24.252 71.9782 24.468C71.9782 24.708 71.9782 24.876 71.9782 24.972V31.416C71.9782 31.728 72.0862 31.98 72.3022 32.172C72.5182 32.364 72.7702 32.508 73.0582 32.604C73.3702 32.724 73.6822 32.832 73.9942 32.928C74.2102 33 74.4022 33.072 74.5702 33.144C74.7382 33.24 74.8222 33.384 74.8222 33.576C74.8222 33.72 74.7382 33.816 74.5702 33.864C74.4022 33.936 74.2342 33.972 74.0662 33.972C73.3702 33.972 72.7342 33.936 72.1582 33.864C71.5822 33.816 70.9822 33.792 70.3582 33.792C69.9502 33.792 69.5902 33.804 69.2782 33.828C68.9662 33.852 68.6422 33.876 68.3062 33.9C67.9942 33.948 67.5982 33.972 67.1182 33.972ZM75.8302 23.244C76.1662 23.244 76.5622 23.148 77.0182 22.956C77.4742 22.74 77.9302 22.392 78.3862 21.912C78.8662 21.432 79.2622 20.796 79.5742 20.004C79.8862 19.212 80.0422 18.228 80.0422 17.052C80.0422 15.684 79.8742 14.592 79.5382 13.776C79.2262 12.96 78.8302 12.348 78.3502 11.94C77.8702 11.508 77.3782 11.22 76.8742 11.076C76.3942 10.932 75.9862 10.86 75.6502 10.86C75.1222 10.86 74.5702 10.98 73.9942 11.22C73.4422 11.436 72.9742 11.688 72.5902 11.976C72.2302 12.264 72.0502 12.492 72.0502 12.66C72.0502 13.092 72.0382 13.584 72.0142 14.136C72.0142 14.664 72.0022 15.216 71.9782 15.792C71.9782 16.344 71.9782 16.848 71.9782 17.304C71.9782 17.76 71.9782 18.084 71.9782 18.276C71.9782 19.092 72.1582 19.884 72.5182 20.652C72.9022 21.42 73.3822 22.044 73.9582 22.524C74.5582 23.004 75.1822 23.244 75.8302 23.244ZM89.9161 24.504C89.1481 24.504 88.4161 24.396 87.7201 24.18C87.0481 23.964 86.4601 23.652 85.9561 23.244C85.7881 22.932 85.6681 22.44 85.5961 21.768C85.5241 21.096 85.4881 20.484 85.4881 19.932C85.4881 19.692 85.6681 19.572 86.0281 19.572C86.1721 19.572 86.2921 19.608 86.3881 19.68C86.5081 19.728 86.5801 19.8 86.6041 19.896C86.9641 21.024 87.4681 21.876 88.1161 22.452C88.7641 23.028 89.4721 23.316 90.2401 23.316C90.9121 23.316 91.4641 23.1 91.8961 22.668C92.3281 22.212 92.5441 21.672 92.5441 21.048C92.5441 20.4 92.3161 19.86 91.8601 19.428C91.4041 18.972 90.7081 18.456 89.7721 17.88C89.0041 17.424 88.3441 16.98 87.7921 16.548C87.2401 16.092 86.8201 15.6 86.5321 15.072C86.2441 14.52 86.1001 13.896 86.1001 13.2C86.1001 12.36 86.3041 11.616 86.7121 10.968C87.1441 10.32 87.7441 9.804 88.5121 9.42C89.2801 9.036 90.2041 8.844 91.2841 8.844C92.0521 8.844 92.7001 8.928 93.2281 9.096C93.7801 9.24 94.1761 9.396 94.4161 9.564C94.6081 9.828 94.7641 10.26 94.8841 10.86C95.0281 11.46 95.1001 12.06 95.1001 12.66C95.1001 12.852 94.9441 12.948 94.6321 12.948C94.4881 12.948 94.3321 12.912 94.1641 12.84C94.0201 12.768 93.9241 12.672 93.8761 12.552C93.5641 11.712 93.1681 11.076 92.6881 10.644C92.2321 10.212 91.6681 9.996 90.9961 9.996C90.4201 9.996 89.9041 10.176 89.4481 10.536C88.9921 10.872 88.7641 11.364 88.7641 12.012C88.7641 12.564 88.9561 13.056 89.3401 13.488C89.7481 13.896 90.3841 14.34 91.2481 14.82C92.6881 15.612 93.7441 16.368 94.4161 17.088C95.1121 17.784 95.4601 18.72 95.4601 19.896C95.4601 21.288 94.9561 22.404 93.9481 23.244C92.9641 24.084 91.6201 24.504 89.9161 24.504ZM103.81 24.54C102.514 24.54 101.362 24.216 100.354 23.568C99.3698 22.896 98.5898 21.972 98.0138 20.796C97.4378 19.596 97.1498 18.216 97.1498 16.656C97.1498 15.24 97.4738 13.944 98.1218 12.768C98.7938 11.592 99.6818 10.656 100.786 9.96C101.89 9.24 103.102 8.88 104.422 8.88C105.406 8.88 106.282 9.084 107.05 9.492C107.842 9.876 108.454 10.428 108.886 11.148C109.342 11.844 109.57 12.648 109.57 13.56C109.57 14.352 109.198 14.748 108.454 14.748H101.002C100.666 14.748 100.426 14.844 100.282 15.036C100.138 15.228 100.066 15.576 100.066 16.08C100.066 17.136 100.306 18.108 100.786 18.996C101.266 19.86 101.902 20.556 102.694 21.084C103.486 21.612 104.362 21.876 105.322 21.876C106.042 21.876 106.69 21.744 107.266 21.48C107.866 21.192 108.418 20.796 108.922 20.292C108.994 20.196 109.054 20.124 109.102 20.076C109.174 20.028 109.246 20.004 109.318 20.004C109.534 20.004 109.642 20.136 109.642 20.4C109.642 20.784 109.474 21.24 109.138 21.768C108.802 22.272 108.37 22.74 107.842 23.172C107.338 23.58 106.738 23.904 106.042 24.144C105.37 24.408 104.626 24.54 103.81 24.54ZM101.038 13.524H103.918C104.542 13.524 105.034 13.512 105.394 13.488C105.754 13.464 106.09 13.416 106.402 13.344C106.522 13.296 106.606 13.2 106.654 13.056C106.702 12.888 106.726 12.684 106.726 12.444C106.726 11.772 106.45 11.208 105.898 10.752C105.346 10.272 104.686 10.032 103.918 10.032C103.39 10.032 102.862 10.188 102.334 10.5C101.83 10.812 101.41 11.208 101.074 11.688C100.738 12.144 100.582 12.612 100.606 13.092C100.606 13.38 100.75 13.524 101.038 13.524Z" fill="white"/>
</svg>
