<svg width="116" height="40" viewBox="0 0 116 40" fill="none" xmlns="http://www.w3.org/2000/svg">
<path d="M6.69183 29.845C5.62113 29.845 4.61417 29.6939 3.67094 29.3919C2.72772 29.1151 1.86096 28.6872 1.07069 28.1083C0.968721 28.0077 0.854004 27.8944 0.726541 27.7686C0.62457 27.6176 0.548092 27.4665 0.497107 27.3155C0.318658 26.7367 0.191195 26.0194 0.114717 25.1636C0.0637316 24.2827 0.0254926 23.5025 0 22.823C0 22.6468 0.076478 22.521 0.229434 22.4454C0.38239 22.3448 0.560839 22.2944 0.76478 22.2944C0.943229 22.2944 1.08344 22.3322 1.18541 22.4077C1.31287 22.458 1.4021 22.5713 1.45308 22.7475C1.98843 24.6603 2.7787 26.0949 3.8239 27.0513C4.8691 27.9825 6.00352 28.4481 7.22717 28.4481C8.09392 28.4481 8.83321 28.2593 9.44503 27.8818C10.0823 27.5043 10.5795 27.0009 10.9364 26.3717C11.2933 25.7173 11.4717 24.9875 11.4717 24.1821C11.4717 23.2257 11.306 22.4454 10.9746 21.8414C10.6432 21.2374 10.1588 20.6962 9.52151 20.218C8.8842 19.7398 8.09392 19.2239 7.15069 18.6702C6.13099 18.0661 5.12403 17.4369 4.12981 16.7826C3.16109 16.1282 2.35807 15.3605 1.72076 14.4796C1.08344 13.5988 0.76478 12.5165 0.76478 11.2329C0.76478 9.87383 1.08344 8.67833 1.72076 7.64643C2.38356 6.58935 3.33954 5.75879 4.58868 5.15475C5.83782 4.52554 7.34189 4.21094 9.10088 4.21094C10.0186 4.21094 10.8471 4.31161 11.5864 4.51296C12.3512 4.68914 12.963 4.8779 13.4219 5.07925C13.6513 5.15475 13.8298 5.2806 13.9572 5.45677C14.1102 5.63295 14.2249 5.84688 14.3014 6.09857C14.4289 6.6271 14.5691 7.24373 14.722 7.94845C14.875 8.65316 14.9514 9.37046 14.9514 10.1003C14.9514 10.3772 14.7475 10.5156 14.3396 10.5156C14.1102 10.5156 13.8935 10.4653 13.6896 10.3646C13.4856 10.2639 13.3582 10.1381 13.3072 9.98709C12.7973 8.57766 12.16 7.508 11.3952 6.77812C10.6559 6.04823 9.71271 5.68329 8.56554 5.68329C7.80076 5.68329 7.09971 5.82172 6.46239 6.09857C5.85057 6.35025 5.35346 6.77811 4.97107 7.38216C4.61417 7.96103 4.43572 8.72867 4.43572 9.68506C4.43572 10.3646 4.66516 11.0064 5.12403 11.6104C5.60839 12.1893 6.2457 12.7556 7.03598 13.3093C7.85174 13.8379 8.75673 14.3916 9.75095 14.9704C10.7961 15.5996 11.7394 16.254 12.5806 16.9336C13.4219 17.6131 14.0847 18.3933 14.5691 19.2742C15.0534 20.13 15.2956 21.1619 15.2956 22.3699C15.2956 23.9556 14.9387 25.3146 14.2249 26.4472C13.5111 27.5546 12.5042 28.3978 11.204 28.9766C9.92939 29.5555 8.42533 29.845 6.69183 29.845Z" fill="#1E293B"/>
<path d="M19.2193 40.0004C18.6584 40.0004 18.1358 39.8368 17.6515 39.5096C17.1671 39.2076 16.9249 38.7672 16.9249 38.1883C16.9249 37.7101 17.0397 37.2822 17.2691 36.9047C17.4985 36.5272 17.8427 36.3384 18.3015 36.3384C18.6329 36.3384 18.9516 36.3762 19.2575 36.4517C19.5889 36.5523 19.8821 36.6027 20.137 36.6027C20.3919 36.5775 20.5831 36.5146 20.7106 36.4139C20.8381 36.3384 20.9655 36.1874 21.093 35.9609C21.3479 35.5582 21.6156 35.08 21.896 34.5263C22.2019 33.9977 22.5206 33.3811 22.852 32.6764C23.1834 31.9717 23.5275 31.1789 23.8844 30.298C24.0374 29.9205 24.1139 29.5178 24.1139 29.0899C24.1139 28.8382 24.0884 28.5991 24.0374 28.3726C23.9864 28.1461 23.9099 27.9196 23.808 27.6931L19.2958 16.8203C19.0918 16.3421 18.8496 15.9268 18.5692 15.5745C18.2888 15.2221 17.9319 14.983 17.4985 14.8572C17.2946 14.7565 17.1034 14.6558 16.9249 14.5552C16.772 14.4545 16.6955 14.3035 16.6955 14.1021C16.6955 13.9511 16.7975 13.863 17.0014 13.8379C17.2054 13.7875 17.3711 13.7623 17.4985 13.7623C18.0594 13.7623 18.4927 13.7749 18.7987 13.8001C19.1046 13.8253 19.385 13.8504 19.6399 13.8756C19.8948 13.9008 20.2262 13.9134 20.6341 13.9134C21.1185 13.9134 21.5009 13.9008 21.7813 13.8756C22.0617 13.8504 22.3549 13.8253 22.6608 13.8001C22.9922 13.7749 23.4256 13.7623 23.9609 13.7623C24.1394 13.7623 24.3178 13.8001 24.4963 13.8756C24.6747 13.9259 24.7639 14.0266 24.7639 14.1776C24.7639 14.379 24.6492 14.5552 24.4198 14.7062C24.1903 14.832 23.9737 14.9327 23.7697 15.0082C23.4893 15.0837 23.2726 15.2221 23.1197 15.4235C22.9922 15.5996 22.9285 15.8891 22.9285 16.2918C22.9285 16.468 22.9667 16.6693 23.0432 16.8958C23.1197 17.1223 23.2089 17.3488 23.3109 17.5754L26.1405 24.4841C26.1915 24.6099 26.2553 24.6729 26.3317 24.6729C26.3827 24.6729 26.4337 24.6099 26.4847 24.4841L28.8937 17.9529C28.9702 17.7767 29.034 17.5502 29.0849 17.2733C29.1359 16.9713 29.1614 16.7196 29.1614 16.5183C29.1614 16.0653 29.0722 15.7381 28.8937 15.5367C28.7153 15.3102 28.5114 15.1466 28.2819 15.0459C28.078 14.9453 27.8485 14.832 27.5936 14.7062C27.3642 14.5552 27.2495 14.379 27.2495 14.1776C27.2495 14.0266 27.3387 13.9259 27.5171 13.8756C27.7211 13.8001 27.8995 13.7623 28.0525 13.7623C28.5114 13.7623 28.932 13.7875 29.3144 13.8379C29.6968 13.8882 30.1811 13.9134 30.7675 13.9134C31.1753 13.9134 31.494 13.9008 31.7234 13.8756C31.9529 13.8504 32.1696 13.8253 32.3735 13.8001C32.5774 13.7749 32.8451 13.7623 33.1765 13.7623C33.304 13.7623 33.4697 13.7875 33.6736 13.8379C33.8776 13.863 33.9795 13.9511 33.9795 14.1021C33.9795 14.3035 33.8903 14.4545 33.7119 14.5552C33.5589 14.6558 33.3805 14.7565 33.1765 14.8572C32.7686 14.983 32.348 15.2725 31.9146 15.7255C31.5067 16.1785 31.1753 16.7071 30.9204 17.3111L25.5287 29.996C25.4522 30.2225 25.2865 30.6252 25.0316 31.2041C24.8022 31.7829 24.5218 32.4625 24.1903 33.2427C23.8589 34.0229 23.502 34.8409 23.1197 35.6966C22.7628 36.5775 22.4059 37.4206 22.049 38.226C21.794 38.8049 21.4116 39.2454 20.9018 39.5474C20.4174 39.8494 19.8566 40.0004 19.2193 40.0004Z" fill="#1E293B"/>
<path d="M35.055 29.3919C34.8511 29.3919 34.6726 29.3542 34.5197 29.2787C34.3667 29.2032 34.2902 29.0899 34.2902 28.9389C34.2902 28.7375 34.3667 28.5991 34.5197 28.5236C34.6981 28.4229 34.9148 28.3349 35.1697 28.2593C35.5521 28.1587 35.909 28.0203 36.2404 27.8441C36.5718 27.6679 36.7375 27.3281 36.7375 26.8248V18.5192C36.7375 17.89 36.661 17.3614 36.5081 16.9336C36.3806 16.4805 36.011 16.1785 35.3992 16.0275C35.2972 16.0023 35.208 15.952 35.1315 15.8765C35.055 15.7758 35.0168 15.65 35.0168 15.499C35.0168 15.1718 35.1315 14.9956 35.3609 14.9704C36.2532 14.7439 37.0562 14.4671 37.77 14.1399C38.5093 13.8127 39.1848 13.4477 39.7966 13.045C39.8731 12.9947 39.9496 12.9444 40.0261 12.894C40.128 12.8437 40.2173 12.8185 40.2938 12.8185C40.3957 12.8185 40.4595 12.8563 40.4849 12.9318C40.5359 12.9821 40.5614 13.0576 40.5614 13.1583C40.5614 13.3345 40.5232 13.6743 40.4467 14.1776C40.3957 14.681 40.3702 15.1089 40.3702 15.4612C40.3702 15.5619 40.3702 15.6626 40.3702 15.7632C40.3957 15.8639 40.4212 15.9268 40.4467 15.952C41.3389 15.1214 42.2567 14.4922 43.1999 14.0644C44.1686 13.6365 45.2521 13.4226 46.4502 13.4226C47.7249 13.4226 48.7828 13.9134 49.6241 14.8949C50.4653 15.8765 50.886 17.1475 50.886 18.7079V26.8625C50.886 27.3659 51.0517 27.6931 51.3831 27.8441C51.74 27.9951 52.1096 28.1335 52.492 28.2593C52.6959 28.3349 52.8871 28.4229 53.0656 28.5236C53.244 28.6243 53.3332 28.7753 53.3332 28.9766C53.3332 29.1528 53.244 29.2661 53.0656 29.3164C52.9126 29.3668 52.7597 29.3919 52.6067 29.3919C52.0969 29.3919 51.6635 29.3668 51.3066 29.3164C50.9752 29.2913 50.6438 29.2661 50.3124 29.2409C50.0065 29.2157 49.6241 29.2032 49.1652 29.2032C48.7318 29.2032 48.3494 29.2157 48.018 29.2409C47.6866 29.2661 47.3425 29.2913 46.9856 29.3164C46.6542 29.3668 46.2335 29.3919 45.7237 29.3919C45.5962 29.3919 45.4433 29.3668 45.2648 29.3164C45.0864 29.2661 44.9971 29.1528 44.9971 28.9766C44.9971 28.7753 45.0864 28.6243 45.2648 28.5236C45.4433 28.4229 45.6345 28.3349 45.8384 28.2593C46.2208 28.1335 46.5777 27.9951 46.9091 27.8441C47.2405 27.6931 47.4062 27.3659 47.4062 26.8625V19.0477C47.4062 17.9906 47.113 17.1727 46.5267 16.5938C45.9659 16.0149 45.2266 15.7129 44.3088 15.6877C43.5186 15.6877 42.8175 15.8136 42.2057 16.0653C41.6194 16.2918 41.0713 16.6064 40.5614 17.0091C40.4594 17.1097 40.383 17.2356 40.332 17.3866C40.281 17.5376 40.2555 17.676 40.2555 17.8019V26.8625C40.2555 27.3659 40.4212 27.7056 40.7526 27.8818C41.084 28.0328 41.4282 28.1587 41.7851 28.2593C42.3459 28.4355 42.6263 28.662 42.6263 28.9389C42.6263 29.0899 42.5626 29.2032 42.4351 29.2787C42.3077 29.3542 42.1292 29.3919 41.8998 29.3919C41.3899 29.3919 40.9566 29.3668 40.5997 29.3164C40.2683 29.2913 39.9496 29.2661 39.6437 29.2409C39.3633 29.2157 38.9936 29.2032 38.5348 29.2032C38.1014 29.2032 37.719 29.2157 37.3876 29.2409C37.0562 29.2661 36.712 29.2913 36.3551 29.3164C35.9982 29.3668 35.5649 29.3919 35.055 29.3919Z" fill="#1E293B"/>
<path d="M58.3432 29.8072C57.8078 29.8072 57.2852 29.631 56.7754 29.2787C56.2655 28.9515 55.8449 28.5362 55.5135 28.0328C55.1821 27.5043 55.0164 26.9883 55.0164 26.485C55.0164 25.6544 55.2458 24.9875 55.7047 24.4841C56.189 23.9807 56.9283 23.5277 57.9225 23.125L61.6317 21.5771C62.1416 21.3758 62.4475 21.1996 62.5494 21.0486C62.6514 20.8724 62.7151 20.5326 62.7406 20.0293L62.8171 17.7264C62.8426 17.0468 62.6769 16.4805 62.32 16.0275C61.9631 15.5745 61.4405 15.348 60.7522 15.348C60.3953 15.348 60.0257 15.4235 59.6433 15.5745C59.2864 15.7003 58.9932 15.8513 58.7638 16.0275C58.6363 16.1282 58.5471 16.2666 58.4961 16.4428C58.4706 16.619 58.4579 16.8077 58.4579 17.0091C58.4579 17.1349 58.4579 17.2859 58.4579 17.4621C58.4834 17.6131 58.4961 17.739 58.4961 17.8396C58.4961 17.9906 58.3177 18.1794 57.9608 18.4059C57.6294 18.6073 57.2342 18.796 56.7754 18.9722C56.342 19.1484 55.9723 19.2365 55.6664 19.2365C55.5135 19.2365 55.386 19.1987 55.284 19.1232C55.2076 19.0225 55.1693 18.8967 55.1693 18.7457C55.1693 18.343 55.2968 17.9277 55.5517 17.4999C55.8321 17.0468 56.24 16.5938 56.7754 16.1408C57.3872 15.6122 58.05 15.1466 58.7638 14.7439C59.5031 14.3161 60.2169 13.9889 60.9052 13.7623C61.619 13.5358 62.2435 13.4226 62.7789 13.4226C63.8496 13.4226 64.7163 13.7875 65.3791 14.5174C66.0674 15.2221 66.3861 16.1408 66.3351 17.2733L66.1439 25.8054C66.1184 26.3591 66.2331 26.8122 66.4881 27.1645C66.743 27.5169 67.0616 27.6931 67.444 27.6931C68.0304 27.6931 68.4892 27.542 68.8206 27.24C68.9226 27.1394 69.0118 27.089 69.0883 27.089C69.2158 27.089 69.3177 27.1268 69.3942 27.2023C69.4962 27.2778 69.5472 27.3785 69.5472 27.5043C69.5472 27.8063 69.3687 28.1209 69.0118 28.4481C68.5785 28.876 68.1068 29.2032 67.597 29.4297C67.1126 29.6814 66.641 29.8072 66.1822 29.8072C64.9075 29.8072 63.8878 29.1277 63.123 27.7686H63.0083C62.1671 28.4733 61.3768 28.9892 60.6375 29.3164C59.8982 29.6436 59.1334 29.8072 58.3432 29.8072ZM60.3316 27.7686C60.765 27.7686 61.1219 27.7056 61.4023 27.5798C61.7082 27.4288 61.9759 27.2274 62.2053 26.9758C62.3328 26.8499 62.422 26.6989 62.473 26.5227C62.5494 26.3214 62.6004 26.0194 62.6259 25.6167L62.7024 23.4648C62.7279 23.2131 62.7151 23.0369 62.6642 22.9362C62.6132 22.8104 62.5112 22.7475 62.3582 22.7475C62.3073 22.7475 62.2308 22.7601 62.1288 22.7852C62.0268 22.8104 61.8866 22.8607 61.7082 22.9362C60.561 23.3641 59.758 23.8171 59.2991 24.2953C58.8403 24.7484 58.6108 25.2517 58.6108 25.8054C58.6108 26.485 58.7893 26.9883 59.1462 27.3155C59.5286 27.6176 59.9237 27.7686 60.3316 27.7686Z" fill="#1E293B"/>
<path d="M70.6212 39.7361C70.4682 39.7361 70.2898 39.6984 70.0858 39.6229C69.9074 39.5725 69.8181 39.4719 69.8181 39.3209C69.8181 39.1195 69.9074 38.9685 70.0858 38.8678C70.2643 38.7672 70.4682 38.6791 70.6976 38.6036C71.131 38.4777 71.5007 38.3267 71.8066 38.1505C72.1125 37.9744 72.2654 37.6472 72.2654 37.169V18.4059C72.2654 18.1794 72.2017 17.8774 72.0742 17.4999C71.9723 17.1223 71.7938 16.77 71.5389 16.4428C71.284 16.1156 70.9653 15.9268 70.5829 15.8765C70.4555 15.8262 70.3535 15.7632 70.277 15.6877C70.226 15.5871 70.2005 15.4612 70.2005 15.3102C70.2005 15.1592 70.226 15.0459 70.277 14.9704C70.3535 14.8698 70.4427 14.8068 70.5447 14.7817C71.4624 14.5552 72.3292 14.3035 73.1449 14.0266C73.9607 13.7498 74.6872 13.4603 75.3246 13.1583C75.401 13.1583 75.452 13.1457 75.4775 13.1206C75.5285 13.0702 75.5795 13.045 75.6305 13.045C75.7069 13.045 75.7707 13.0954 75.8217 13.1961C75.8727 13.2716 75.8981 13.3471 75.8981 13.4226C75.8981 13.6491 75.8599 14.0014 75.7834 14.4796C75.7324 14.9578 75.7069 15.3605 75.7069 15.6877C75.7069 15.8891 75.7197 16.0023 75.7452 16.0275C76.0001 15.7758 76.459 15.4612 77.1218 15.0837C77.7846 14.681 78.5494 14.3161 79.4161 13.9889C80.2829 13.6617 81.1114 13.4981 81.9017 13.4981C83.2273 13.4981 84.3617 13.8504 85.3049 14.5552C86.2482 15.2599 86.9747 16.1659 87.4846 17.2733C87.9944 18.3807 88.2493 19.5259 88.2493 20.7088C88.2493 21.8666 88.0199 22.9866 87.561 24.0688C87.1277 25.1511 86.5031 26.1326 85.6873 27.0135C84.897 27.8692 83.9793 28.5614 82.9341 29.0899C81.8889 29.5933 80.7545 29.845 79.5308 29.845C79.1994 29.845 78.8043 29.7946 78.3454 29.6939C77.8866 29.6184 77.4277 29.4926 76.9688 29.3164C76.5355 29.1654 76.1913 28.9892 75.9364 28.7879C75.9109 28.7879 75.8854 28.9011 75.8599 29.1277C75.8344 29.329 75.8089 29.5429 75.7834 29.7695C75.7834 30.0211 75.7834 30.1973 75.7834 30.298V37.0557C75.7834 37.3829 75.8981 37.6472 76.1276 37.8485C76.357 38.0499 76.6247 38.2009 76.9306 38.3015C77.262 38.4274 77.5934 38.5406 77.9248 38.6413C78.1542 38.7168 78.3582 38.7923 78.5366 38.8678C78.7151 38.9685 78.8043 39.1195 78.8043 39.3209C78.8043 39.4719 78.7151 39.5725 78.5366 39.6229C78.3582 39.6984 78.1797 39.7361 78.0013 39.7361C77.262 39.7361 76.5864 39.6984 75.9746 39.6229C75.3628 39.5725 74.7255 39.5474 74.0627 39.5474C73.6293 39.5474 73.2469 39.56 72.9155 39.5851C72.5841 39.6103 72.2399 39.6355 71.883 39.6606C71.5516 39.711 71.131 39.7361 70.6212 39.7361ZM79.875 28.4859C80.2319 28.4859 80.6525 28.3852 81.1369 28.1838C81.6212 27.9573 82.1056 27.5924 82.59 27.089C83.0998 26.5857 83.5204 25.9187 83.8519 25.0881C84.1833 24.2576 84.349 23.2257 84.349 21.9924C84.349 20.5578 84.1705 19.4127 83.8136 18.5569C83.4822 17.7012 83.0616 17.0594 82.5517 16.6315C82.0419 16.1785 81.5193 15.8765 80.9839 15.7255C80.4741 15.5745 80.0407 15.499 79.6838 15.499C79.123 15.499 78.5366 15.6248 77.9248 15.8765C77.3385 16.103 76.8414 16.3673 76.4335 16.6693C76.0511 16.9713 75.8599 17.2104 75.8599 17.3866C75.8599 17.8396 75.8472 18.3556 75.8217 18.9345C75.8217 19.4882 75.8089 20.067 75.7834 20.6711C75.7834 21.2499 75.7834 21.7785 75.7834 22.2567C75.7834 22.7349 75.7834 23.0747 75.7834 23.276C75.7834 24.1317 75.9746 24.9623 76.357 25.7677C76.7649 26.5731 77.2747 27.2274 77.8866 27.7308C78.5239 28.2342 79.1867 28.4859 79.875 28.4859Z" fill="#1E293B"/>
<path d="M94.8369 29.8072C94.0211 29.8072 93.2436 29.6939 92.5043 29.4674C91.7905 29.2409 91.166 28.9137 90.6306 28.4859C90.4522 28.1587 90.3247 27.6427 90.2482 26.938C90.1717 26.2333 90.1335 25.5915 90.1335 25.0126C90.1335 24.7609 90.3247 24.6351 90.7071 24.6351C90.86 24.6351 90.9875 24.6729 91.0895 24.7484C91.2169 24.7987 91.2934 24.8742 91.3189 24.9749C91.7013 26.1578 92.2366 27.0513 92.9249 27.6553C93.6133 28.2593 94.3653 28.5614 95.1811 28.5614C95.8948 28.5614 96.4812 28.3349 96.94 27.8818C97.3989 27.4036 97.6283 26.8373 97.6283 26.183C97.6283 25.5034 97.3862 24.9371 96.9018 24.4841C96.4174 24.0059 95.6782 23.4648 94.6839 22.8607C93.8682 22.3825 93.1671 21.9169 92.5808 21.4639C91.9945 20.9857 91.5483 20.4697 91.2424 19.916C90.9365 19.3371 90.7836 18.6828 90.7836 17.9529C90.7836 17.072 91.0003 16.2918 91.4336 15.6122C91.8925 14.9327 92.5298 14.3916 93.3456 13.9889C94.1613 13.5862 95.1428 13.3848 96.29 13.3848C97.1057 13.3848 97.794 13.4729 98.3549 13.6491C98.9412 13.8001 99.3619 13.9637 99.6168 14.1399C99.8207 14.4167 99.9864 14.8698 100.114 15.499C100.267 16.1282 100.343 16.7574 100.343 17.3866C100.343 17.5879 100.178 17.6886 99.8462 17.6886C99.6933 17.6886 99.5276 17.6509 99.3491 17.5754C99.1962 17.4999 99.0942 17.3992 99.0432 17.2733C98.7118 16.3924 98.2912 15.7255 97.7813 15.2725C97.297 14.8194 96.6979 14.5929 95.9841 14.5929C95.3723 14.5929 94.8242 14.7817 94.3398 15.1592C93.8554 15.5116 93.6133 16.0275 93.6133 16.7071C93.6133 17.2859 93.8172 17.8019 94.2251 18.2549C94.6584 18.6828 95.334 19.1484 96.2517 19.6518C97.7813 20.4823 98.903 21.2751 99.6168 22.0302C100.356 22.7601 100.726 23.7416 100.726 24.9749C100.726 26.4346 100.19 27.605 99.1197 28.4859C98.0745 29.3668 96.6469 29.8072 94.8369 29.8072Z" fill="#1E293B"/>
<path d="M109.595 29.845C108.218 29.845 106.995 29.5052 105.924 28.8256C104.879 28.1209 104.05 27.1519 103.438 25.9187C102.826 24.6603 102.521 23.2131 102.521 21.5771C102.521 20.0922 102.865 18.7331 103.553 17.4999C104.267 16.2666 105.21 15.285 106.383 14.5552C107.555 13.8001 108.843 13.4226 110.245 13.4226C111.29 13.4226 112.221 13.6365 113.036 14.0644C113.878 14.4671 114.528 15.0459 114.986 15.801C115.471 16.5309 115.713 17.374 115.713 18.3304C115.713 19.161 115.318 19.5763 114.528 19.5763H106.612C106.255 19.5763 106 19.6769 105.847 19.8783C105.694 20.0796 105.618 20.4446 105.618 20.9731C105.618 22.0805 105.873 23.0998 106.383 24.0311C106.893 24.9371 107.568 25.667 108.409 26.2207C109.251 26.7744 110.181 27.0513 111.201 27.0513C111.966 27.0513 112.654 26.9128 113.266 26.636C113.903 26.334 114.489 25.9187 115.025 25.3902C115.101 25.2895 115.165 25.214 115.216 25.1636C115.292 25.1133 115.369 25.0881 115.445 25.0881C115.675 25.0881 115.789 25.2266 115.789 25.5034C115.789 25.9061 115.611 26.3843 115.254 26.938C114.897 27.4665 114.438 27.9573 113.878 28.4104C113.342 28.8382 112.705 29.178 111.966 29.4297C111.252 29.7065 110.462 29.845 109.595 29.845ZM106.65 18.2927H109.709C110.372 18.2927 110.895 18.2801 111.277 18.2549C111.66 18.2297 112.017 18.1794 112.348 18.1039C112.475 18.0536 112.565 17.9529 112.616 17.8019C112.667 17.6257 112.692 17.4118 112.692 17.1601C112.692 16.4554 112.399 15.8639 111.813 15.3857C111.226 14.8823 110.525 14.6307 109.709 14.6307C109.149 14.6307 108.588 14.7943 108.027 15.1214C107.492 15.4486 107.045 15.8639 106.689 16.3673C106.332 16.8455 106.166 17.3363 106.191 17.8396C106.191 18.1417 106.344 18.2927 106.65 18.2927Z" fill="#1E293B"/>
</svg>
