<svg width="38" height="38" viewBox="0 0 38 38" fill="none" xmlns="http://www.w3.org/2000/svg">
<path d="M18.7502 34.0043C23.805 34.0043 27.9027 29.9066 27.9027 24.8518C27.9027 19.797 23.805 15.6992 18.7502 15.6992C13.6954 15.6992 9.59766 19.797 9.59766 24.8518C9.59766 29.9066 13.6954 34.0043 18.7502 34.0043Z" stroke="#2447D5" stroke-width="1.5" stroke-miterlimit="10" stroke-linecap="round" stroke-linejoin="round"/>
<path d="M30.6491 36.75L25.2227 31.3235" stroke="#2447D5" stroke-width="1.5" stroke-miterlimit="10" stroke-linecap="round" stroke-linejoin="round"/>
<path d="M16.5918 22.6943L20.9063 27.0088" stroke="#2447D5" stroke-width="1.5" stroke-miterlimit="10" stroke-linecap="round" stroke-linejoin="round"/>
<path d="M20.9063 22.6943L16.5918 27.0088" stroke="#2447D5" stroke-width="1.5" stroke-miterlimit="10" stroke-linecap="round" stroke-linejoin="round"/>
<path d="M5.32627 24.8517C2.79887 24.8517 0.75 22.8028 0.75 20.2754V5.32627C0.75 2.79887 2.79887 0.75 5.32627 0.75H32.1737C34.7011 0.75 36.75 2.79887 36.75 5.32627V20.2754C36.75 22.3925 35.3124 24.1738 33.3601 24.6964" stroke="#2447D5" stroke-width="1.5" stroke-miterlimit="10" stroke-linecap="round" stroke-linejoin="round"/>
</svg>
