<svg width="40" height="20" viewBox="0 0 40 20" fill="none" xmlns="http://www.w3.org/2000/svg">
<path d="M24.6287 5.83325C25.5703 5.83327 26.3244 6.02736 26.8054 6.20728L26.4763 8.1311L26.2585 8.02954C25.8105 7.84927 25.2354 7.67635 24.4402 7.68872C23.4897 7.68881 23.0496 8.08408 23.0496 8.45239C23.0442 8.86792 23.5645 9.14296 24.4138 9.55396C25.8144 10.187 26.4606 10.9559 26.4519 11.9661C26.4333 13.8091 24.7757 15.0002 22.2224 15.0002C21.1334 14.9892 20.0852 14.774 19.5173 14.5266L19.8582 12.5383L20.1716 12.6799C20.9691 13.0114 21.4858 13.1457 22.4578 13.1458C23.1555 13.1457 23.9033 12.8733 23.9099 12.2786C23.9149 11.8901 23.5971 11.6115 22.6521 11.177C21.7306 10.7514 20.5103 10.0405 20.5232 8.76392C20.5374 7.03848 22.229 5.83336 24.6287 5.83325ZM34.9998 14.8704H32.7458C32.7413 14.8496 32.523 13.8481 32.4509 13.5403C32.0954 13.5403 29.618 13.5374 29.3396 13.5374C29.2456 13.7767 28.8374 14.848 28.8289 14.8704H26.2781L29.8845 6.73364C30.1406 6.15513 30.5755 5.99742 31.157 5.99731H33.0339L34.9998 14.8704ZM17.9968 14.8684H15.5681L17.0876 5.98853H19.5154L17.9968 14.8684ZM16.1042 5.99438L12.281 14.8577L9.71069 14.8606L7.53687 7.09399C9.07855 7.86324 10.4578 9.40057 10.9001 10.8196L11.1541 12.05L13.532 5.99438H16.1042ZM31.0066 9.23755C30.9943 9.26923 30.2383 11.2136 30.0388 11.7209H32.0554C31.9587 11.2799 31.5002 9.19421 31.4919 9.15649L31.3279 8.39087C31.2059 8.72186 30.995 9.25412 31.0066 9.23755Z" fill="#1A1F71"/>
<path fill-rule="evenodd" clip-rule="evenodd" d="M8.94787 5.98877H5.03086L5 6.1733C8.04719 6.90897 10.0635 8.68504 10.9003 10.8196L10.0486 6.73822C9.90176 6.17578 9.47501 6.00821 8.94787 5.98877Z" fill="#F9A51A"/>
</svg>
